<svg width="64" height="64" viewBox="0 0 64 64" xmlns="http://www.w3.org/2000/svg">
  <!-- 배경 -->
  <rect width="64" height="64" fill="#10b981" rx="12"/>
  
  <!-- 나무 (호스트) -->
  <g transform="translate(32, 50)">
    <!-- 나무줄기 -->
    <rect x="-2" y="-15" width="4" height="15" fill="#8b5cf6" rx="2"/>
    
    <!-- 나무 잎사귀/가지 -->
    <circle cx="0" cy="-20" r="12" fill="#059669" opacity="0.9"/>
    <circle cx="-6" cy="-25" r="8" fill="#10b981" opacity="0.8"/>
    <circle cx="6" cy="-25" r="8" fill="#34d399" opacity="0.8"/>
  </g>
  
  <!-- 나비들 (여행자들) -->
  <!-- 첫 번째 나비 - 왼쪽 위 -->
  <g transform="translate(18, 20)">
    <ellipse cx="-2" cy="0" rx="3" ry="5" fill="#fbbf24" opacity="0.9"/>
    <ellipse cx="2" cy="0" rx="3" ry="5" fill="#f59e0b" opacity="0.9"/>
    <ellipse cx="-2" cy="3" rx="2" ry="3" fill="#f59e0b" opacity="0.8"/>
    <ellipse cx="2" cy="3" rx="2" ry="3" fill="#fbbf24" opacity="0.8"/>
    <line x1="0" y1="-2" x2="0" y2="6" stroke="#d97706" stroke-width="1"/>
  </g>
  
  <!-- 두 번째 나비 - 오른쪽 위 -->
  <g transform="translate(46, 22)">
    <ellipse cx="-2" cy="0" rx="3" ry="5" fill="#ec4899" opacity="0.9"/>
    <ellipse cx="2" cy="0" rx="3" ry="5" fill="#f472b6" opacity="0.9"/>
    <ellipse cx="-2" cy="3" rx="2" ry="3" fill="#f472b6" opacity="0.8"/>
    <ellipse cx="2" cy="3" rx="2" ry="3" fill="#ec4899" opacity="0.8"/>
    <line x1="0" y1="-2" x2="0" y2="6" stroke="#be185d" stroke-width="1"/>
  </g>
  
  <!-- 세 번째 나비 - 중앙 -->
  <g transform="translate(32, 15)">
    <ellipse cx="-2" cy="0" rx="3" ry="5" fill="#3b82f6" opacity="0.9"/>
    <ellipse cx="2" cy="0" rx="3" ry="5" fill="#60a5fa" opacity="0.9"/>
    <ellipse cx="-2" cy="3" rx="2" ry="3" fill="#60a5fa" opacity="0.8"/>
    <ellipse cx="2" cy="3" rx="2" ry="3" fill="#3b82f6" opacity="0.8"/>
    <line x1="0" y1="-2" x2="0" y2="6" stroke="#1d4ed8" stroke-width="1"/>
  </g>
  
  <!-- 네 번째 나비 - 왼쪽 아래 -->
  <g transform="translate(20, 40)">
    <ellipse cx="-1.5" cy="0" rx="2.5" ry="4" fill="#a78bfa" opacity="0.9"/>
    <ellipse cx="1.5" cy="0" rx="2.5" ry="4" fill="#c4b5fd" opacity="0.9"/>
    <ellipse cx="-1.5" cy="2.5" rx="1.5" ry="2.5" fill="#c4b5fd" opacity="0.8"/>
    <ellipse cx="1.5" cy="2.5" rx="1.5" ry="2.5" fill="#a78bfa" opacity="0.8"/>
    <line x1="0" y1="-1.5" x2="0" y2="5" stroke="#7c3aed" stroke-width="1"/>
  </g>
  
  <!-- 다섯 번째 나비 - 오른쪽 아래 -->
  <g transform="translate(44, 42)">
    <ellipse cx="-1.5" cy="0" rx="2.5" ry="4" fill="#14b8a6" opacity="0.9"/>
    <ellipse cx="1.5" cy="0" rx="2.5" ry="4" fill="#5eead4" opacity="0.9"/>
    <ellipse cx="-1.5" cy="2.5" rx="1.5" ry="2.5" fill="#5eead4" opacity="0.8"/>
    <ellipse cx="1.5" cy="2.5" rx="1.5" ry="2.5" fill="#14b8a6" opacity="0.8"/>
    <line x1="0" y1="-1.5" x2="0" y2="5" stroke="#0f766e" stroke-width="1"/>
  </g>
</svg>